<mxfile host="65bd71144e">
    <diagram id="W8thJxA2v2r9GThXU8aW" name="Page-1">
        <mxGraphModel dx="1411" dy="477" grid="1" gridSize="10" guides="1" tooltips="1" connect="1" arrows="1" fold="1" page="1" pageScale="1" pageWidth="827" pageHeight="1169" math="0" shadow="0">
            <root>
                <mxCell id="0"/>
                <mxCell id="1" parent="0"/>
                <mxCell id="60" value="" style="whiteSpace=wrap;html=1;" vertex="1" parent="1">
                    <mxGeometry x="-40" y="10" width="880" height="510" as="geometry"/>
                </mxCell>
                <mxCell id="37" value="ユースケースを素直に表現できるように実装する。" style="text;html=1;align=center;verticalAlign=middle;resizable=0;points=[];autosize=1;strokeColor=none;fillColor=none;fontSize=11;" parent="1" vertex="1">
                    <mxGeometry y="600" width="270" height="20" as="geometry"/>
                </mxCell>
                <mxCell id="41" style="edgeStyle=none;html=1;" parent="1" source="38" target="40" edge="1">
                    <mxGeometry relative="1" as="geometry"/>
                </mxCell>
                <mxCell id="38" value="Start" style="text;html=1;align=center;verticalAlign=middle;resizable=0;points=[];autosize=1;strokeColor=none;fillColor=none;" parent="1" vertex="1">
                    <mxGeometry x="100" y="70" width="40" height="20" as="geometry"/>
                </mxCell>
                <mxCell id="52" style="edgeStyle=none;html=1;entryX=0.5;entryY=0;entryDx=0;entryDy=0;" parent="1" source="40" target="43" edge="1">
                    <mxGeometry relative="1" as="geometry"/>
                </mxCell>
                <mxCell id="40" value="デフォルトの支払い方法の取得" style="whiteSpace=wrap;html=1;" parent="1" vertex="1">
                    <mxGeometry x="60" y="110" width="120" height="40" as="geometry"/>
                </mxCell>
                <mxCell id="42" value="ストライプで取引開始のユースケース" style="text;html=1;align=center;verticalAlign=middle;resizable=0;points=[];autosize=1;strokeColor=none;fillColor=none;" parent="1" vertex="1">
                    <mxGeometry y="10" width="220" height="20" as="geometry"/>
                </mxCell>
                <mxCell id="53" style="edgeStyle=none;html=1;" parent="1" source="43" target="48" edge="1">
                    <mxGeometry relative="1" as="geometry"/>
                </mxCell>
                <mxCell id="43" value="ストライプでの支払い取引の追跡の初期化" style="whiteSpace=wrap;html=1;" parent="1" vertex="1">
                    <mxGeometry x="60" y="180" width="120" height="40" as="geometry"/>
                </mxCell>
                <mxCell id="55" style="edgeStyle=none;html=1;" parent="1" source="46" target="49" edge="1">
                    <mxGeometry relative="1" as="geometry"/>
                </mxCell>
                <mxCell id="46" value="ストライプの取引状態を自分のデータベースに保存" style="whiteSpace=wrap;html=1;" parent="1" vertex="1">
                    <mxGeometry x="60" y="310" width="120" height="40" as="geometry"/>
                </mxCell>
                <mxCell id="54" style="edgeStyle=none;html=1;" parent="1" source="48" target="46" edge="1">
                    <mxGeometry relative="1" as="geometry"/>
                </mxCell>
                <mxCell id="58" style="edgeStyle=none;html=1;entryX=0.206;entryY=1.044;entryDx=0;entryDy=0;entryPerimeter=0;" parent="1" source="48" target="57" edge="1">
                    <mxGeometry relative="1" as="geometry"/>
                </mxCell>
                <mxCell id="48" value="取引オブジェクトを作成" style="whiteSpace=wrap;html=1;" parent="1" vertex="1">
                    <mxGeometry x="60" y="250" width="120" height="40" as="geometry"/>
                </mxCell>
                <mxCell id="49" value="取引状態を自分のデータベースに保存" style="whiteSpace=wrap;html=1;" parent="1" vertex="1">
                    <mxGeometry x="60" y="380" width="120" height="40" as="geometry"/>
                </mxCell>
                <mxCell id="51" value="&lt;div&gt;&lt;span&gt;@Injectable()&lt;/span&gt;&lt;br&gt;&lt;/div&gt;&lt;div&gt;export class CreateCommandHandler {&lt;/div&gt;&lt;div&gt;&amp;nbsp; async execute(command: CreateDealCommand): Promise&amp;lt;DealResponseDto&amp;gt; {&lt;/div&gt;&lt;div&gt;&amp;nbsp; &amp;nbsp; const ticket = await this.ticketRepo.findDefaultPaymentCard(command.ticketId)&lt;/div&gt;&lt;div&gt;&lt;br&gt;&lt;/div&gt;&lt;div&gt;&amp;nbsp; &amp;nbsp; const stripePayment = await this.stripePaymentRepo.findCurrentByUserId(command.customerId)&lt;/div&gt;&lt;div&gt;&lt;br&gt;&lt;/div&gt;&lt;div&gt;&amp;nbsp; &amp;nbsp; const stripePaymentIntent = await this.stripeService.createStripePaymentIntent(stripePayment, ticket.totalPrice())&lt;/div&gt;&lt;div&gt;&lt;br&gt;&lt;/div&gt;&lt;div&gt;&amp;nbsp; &amp;nbsp; const deal = DealEntity.create({&lt;/div&gt;&lt;div&gt;&amp;nbsp; &amp;nbsp; &amp;nbsp; ticketId: command.ticketId,&lt;/div&gt;&lt;div&gt;&amp;nbsp; &amp;nbsp; &amp;nbsp; customerId: command.customerId,&lt;/div&gt;&lt;div&gt;&amp;nbsp; &amp;nbsp; })&lt;/div&gt;&lt;div&gt;&lt;br&gt;&lt;/div&gt;&lt;div&gt;&amp;nbsp; &amp;nbsp; const stripeInvoice = StripeInvoiceEntity.create({&lt;/div&gt;&lt;div&gt;&amp;nbsp; &amp;nbsp; &amp;nbsp; dealId: deal.id,&lt;/div&gt;&lt;div&gt;&amp;nbsp; &amp;nbsp; &amp;nbsp; userId: command.customerId,&lt;/div&gt;&lt;div&gt;&amp;nbsp; &amp;nbsp; &amp;nbsp; stripePaymentId: stripePayment.id,&lt;/div&gt;&lt;div&gt;&amp;nbsp; &amp;nbsp; &amp;nbsp; amount: stripePaymentIntent.amount,&lt;/div&gt;&lt;div&gt;&amp;nbsp; &amp;nbsp; &amp;nbsp; stripePaymentIntentId: stripePaymentIntent.id,&lt;/div&gt;&lt;div&gt;&amp;nbsp; &amp;nbsp; })&lt;/div&gt;&lt;div&gt;&lt;br&gt;&lt;/div&gt;&lt;div&gt;&amp;nbsp; &amp;nbsp; await this.prisma.$transaction(async (tx: Prisma.TransactionClient) =&amp;gt; {&lt;/div&gt;&lt;div&gt;&amp;nbsp; &amp;nbsp; &amp;nbsp; await this.dealRepo.insert(tx, deal)&lt;/div&gt;&lt;div&gt;&amp;nbsp; &amp;nbsp; &amp;nbsp; await this.stripeInvoiceRepo.insert(tx, stripeInvoice)&lt;/div&gt;&lt;div&gt;&amp;nbsp; &amp;nbsp; })&lt;/div&gt;&lt;div&gt;&lt;br&gt;&lt;/div&gt;&lt;div&gt;&amp;nbsp; &amp;nbsp; return this.dealMapper.toResponse(deal)&lt;/div&gt;&lt;div&gt;&amp;nbsp; }&lt;/div&gt;&lt;div&gt;}&lt;/div&gt;&lt;div&gt;&lt;br&gt;&lt;/div&gt;" style="text;html=1;align=left;verticalAlign=middle;resizable=0;points=[];autosize=1;strokeColor=none;fillColor=none;" parent="1" vertex="1">
                    <mxGeometry x="400" y="60" width="630" height="440" as="geometry"/>
                </mxCell>
                <mxCell id="56" value="変に抽象化することなく、素直に処理フロー（仕様を）実現することが重要" style="text;html=1;align=center;verticalAlign=middle;resizable=0;points=[];autosize=1;strokeColor=none;fillColor=none;" parent="1" vertex="1">
                    <mxGeometry x="-20" y="30" width="420" height="20" as="geometry"/>
                </mxCell>
                <mxCell id="59" style="edgeStyle=none;html=1;" parent="1" source="57" target="51" edge="1">
                    <mxGeometry relative="1" as="geometry"/>
                </mxCell>
                <mxCell id="57" value="主な処理を抽象化せずに&lt;br&gt;コードと1:1くらいになるように対応" style="text;html=1;align=center;verticalAlign=middle;resizable=0;points=[];autosize=1;strokeColor=none;fillColor=none;" parent="1" vertex="1">
                    <mxGeometry x="180" y="230" width="210" height="30" as="geometry"/>
                </mxCell>
            </root>
        </mxGraphModel>
    </diagram>
</mxfile>